<?xml version="1.0" encoding="UTF-8"?>
<svg width="3703px" height="3601px" viewBox="0 0 3703 3601" version="1.1" xmlns="http://www.w3.org/2000/svg" xmlns:xlink="http://www.w3.org/1999/xlink">
    <!-- Generator: Sketch 48.1 (47250) - http://www.bohemiancoding.com/sketch -->
    <title>Group 8</title>
    <desc>Created with Sketch.</desc>
    <defs></defs>
    <g id="Page-1" stroke="none" stroke-width="1" fill="none" fill-rule="evenodd">
        <g id="Group-8" transform="translate(1.000000, 1.000000)" fill="#000000" stroke="#979797">
            <circle id="Oval-3" cx="234.5" cy="234.5" r="234.5"></circle>
            <circle id="Oval-3" cx="882.5" cy="234.5" r="234.5"></circle>
            <circle id="Oval-3" cx="1530.5" cy="234.5" r="234.5"></circle>
            <circle id="Oval-3" cx="2170.5" cy="234.5" r="234.5"></circle>
            <circle id="Oval-3" cx="2818.5" cy="234.5" r="234.5"></circle>
            <circle id="Oval-3" cx="3466.5" cy="234.5" r="234.5"></circle>
            <circle id="Oval-3" cx="234.5" cy="860.5" r="234.5"></circle>
            <circle id="Oval-3" cx="882.5" cy="860.5" r="234.5"></circle>
            <circle id="Oval-3" cx="1530.5" cy="860.5" r="234.5"></circle>
            <circle id="Oval-3" cx="2170.5" cy="860.5" r="234.5"></circle>
            <circle id="Oval-3" cx="2818.5" cy="860.5" r="234.5"></circle>
            <circle id="Oval-3" cx="3466.5" cy="860.5" r="234.5"></circle>
            <circle id="Oval-3" cx="234.5" cy="1486.5" r="234.5"></circle>
            <circle id="Oval-3" cx="882.5" cy="1486.5" r="234.5"></circle>
            <circle id="Oval-3" cx="1530.5" cy="1486.5" r="234.5"></circle>
            <circle id="Oval-3" cx="2170.5" cy="1486.5" r="234.5"></circle>
            <circle id="Oval-3" cx="2818.5" cy="1486.5" r="234.5"></circle>
            <circle id="Oval-3" cx="3466.5" cy="1486.5" r="234.5"></circle>
            <circle id="Oval-3" cx="234.5" cy="2112.5" r="234.5"></circle>
            <circle id="Oval-3" cx="882.5" cy="2112.5" r="234.5"></circle>
            <circle id="Oval-3" cx="1530.5" cy="2112.5" r="234.5"></circle>
            <circle id="Oval-3" cx="2170.5" cy="2112.5" r="234.5"></circle>
            <circle id="Oval-3" cx="2818.5" cy="2112.5" r="234.5"></circle>
            <circle id="Oval-3" cx="3466.5" cy="2112.5" r="234.5"></circle>
            <circle id="Oval-3" cx="234.5" cy="2738.5" r="234.5"></circle>
            <circle id="Oval-3" cx="882.5" cy="2738.5" r="234.5"></circle>
            <circle id="Oval-3" cx="1530.5" cy="2738.5" r="234.5"></circle>
            <circle id="Oval-3" cx="2170.5" cy="2738.5" r="234.5"></circle>
            <circle id="Oval-3" cx="2818.5" cy="2738.5" r="234.5"></circle>
            <circle id="Oval-3" cx="3466.5" cy="2738.5" r="234.5"></circle>
            <circle id="Oval-3" cx="234.5" cy="3364.5" r="234.5"></circle>
            <circle id="Oval-3" cx="882.5" cy="3364.5" r="234.5"></circle>
            <circle id="Oval-3" cx="1530.5" cy="3364.5" r="234.5"></circle>
            <circle id="Oval-3" cx="2170.5" cy="3364.5" r="234.5"></circle>
            <circle id="Oval-3" cx="2818.5" cy="3364.5" r="234.5"></circle>
            <circle id="Oval-3" cx="3466.5" cy="3364.5" r="234.5"></circle>
        </g>
    </g>
</svg>