<?xml version="1.0" encoding="UTF-8"?>
<svg width="1744px" height="1304px" viewBox="0 0 1744 1304" version="1.1" xmlns="http://www.w3.org/2000/svg" xmlns:xlink="http://www.w3.org/1999/xlink">
    <!-- Generator: Sketch 48.1 (47250) - http://www.bohemiancoding.com/sketch -->
    <title>Group 5</title>
    <desc>Created with Sketch.</desc>
    <defs></defs>
    <g id="Page-1" stroke="none" stroke-width="1" fill="none" fill-rule="evenodd" stroke-linecap="square">
        <g id="Group-5" transform="translate(60.000000, 68.000000)" stroke="#000000" stroke-width="120">
            <path d="M283,0 C174.424338,15.1534764 109.091005,32.1534764 87,51 C-32.0588618,152.572821 -0.557679408,275.050243 21,343 C56.530416,454.991792 127.532485,512.222682 203.216863,587.666946 C302.648191,686.782822 406,795.521655 406,883 C406,1114.53136 299.666667,1208.53136 87,1165" id="Line"></path>
            <path d="M485.566273,0 C376.990611,15.1534764 311.657278,32.1534764 289.566273,51 C170.507412,152.572821 202.008594,275.050243 223.566273,343 C259.096689,454.991792 330.098759,512.222682 405.783137,587.666946 C505.214465,686.782822 608.566273,795.521655 608.566273,883 C608.566273,1114.53136 502.23294,1208.53136 289.566273,1165" id="Line"></path>
            <path d="M705.566273,0 C596.990611,15.1534764 531.657278,32.1534764 509.566273,51 C390.507412,152.572821 422.008594,275.050243 443.566273,343 C479.096689,454.991792 550.098759,512.222682 625.783137,587.666946 C725.214465,686.782822 828.566273,795.521655 828.566273,883 C828.566273,1114.53136 722.23294,1208.53136 509.566273,1165" id="Line"></path>
            <path d="M705.566273,0 C596.990611,15.1534764 531.657278,32.1534764 509.566273,51 C390.507412,152.572821 422.008594,275.050243 443.566273,343 C479.096689,454.991792 550.098759,512.222682 625.783137,587.666946 C725.214465,686.782822 828.566273,795.521655 828.566273,883 C828.566273,1114.53136 722.23294,1208.53136 509.566273,1165" id="Line"></path>
            <path d="M891.566273,0 C782.990611,15.1534764 717.657278,32.1534764 695.566273,51 C576.507412,152.572821 608.008594,275.050243 629.566273,343 C665.096689,454.991792 736.098759,512.222682 811.783137,587.666946 C911.214465,686.782822 1014.56627,795.521655 1014.56627,883 C1014.56627,1114.53136 908.23294,1208.53136 695.566273,1165" id="Line"></path>
            <path d="M1094.56627,0 C985.990611,15.1534764 920.657278,32.1534764 898.566273,51 C779.507412,152.572821 811.008594,275.050243 832.566273,343 C868.096689,454.991792 939.098759,512.222682 1014.78314,587.666946 C1114.21446,686.782822 1217.56627,795.521655 1217.56627,883 C1217.56627,1114.53136 1111.23294,1208.53136 898.566273,1165" id="Line"></path>
            <path d="M1297.56627,0 C1188.99061,15.1534764 1123.65728,32.1534764 1101.56627,51 C982.507412,152.572821 1014.00859,275.050243 1035.56627,343 C1071.09669,454.991792 1142.09876,512.222682 1217.78314,587.666946 C1317.21446,686.782822 1420.56627,795.521655 1420.56627,883 C1420.56627,1114.53136 1314.23294,1208.53136 1101.56627,1165" id="Line"></path>
            <path d="M1500.56627,0 C1391.99061,15.1534764 1326.65728,32.1534764 1304.56627,51 C1185.50741,152.572821 1217.00859,275.050243 1238.56627,343 C1274.09669,454.991792 1345.09876,512.222682 1420.78314,587.666946 C1520.21446,686.782822 1623.56627,795.521655 1623.56627,883 C1623.56627,1114.53136 1517.23294,1208.53136 1304.56627,1165" id="Line"></path>
        </g>
    </g>
</svg>